<svg width="194" height="56" viewBox="0 0 194 56" fill="none" xmlns="http://www.w3.org/2000/svg">
<path d="M192.923 49.5418C192.923 52.5261 190.453 54.9434 187.398 54.9434H6.60974C3.55648 54.9434 1.07812 52.5261 1.07812 49.5418V6.46535C1.07812 3.48245 3.55648 1.05664 6.60974 1.05664H187.397C190.453 1.05664 192.921 3.48245 192.921 6.46535L192.923 49.5418Z" fill="white"/>
<path d="M186.815 1.12175C190.142 1.12175 192.849 3.759 192.849 7V49C192.849 52.241 190.142 54.8783 186.815 54.8783H7.18518C3.85844 54.8783 1.15143 52.241 1.15143 49V7C1.15143 3.759 3.85844 1.12175 7.18518 1.12175H186.815ZM186.815 3.8147e-06H7.18518C3.23513 3.8147e-06 0 3.15175 0 7V49C0 52.8483 3.23513 56 7.18518 56H186.815C190.765 56 194 52.8483 194 49V7C194 3.15175 190.765 3.8147e-06 186.815 3.8147e-06Z" fill="#A6A6A6"/>
<path d="M43.2944 27.6974C43.2528 23.1852 47.0868 20.99 47.2621 20.8878C45.0907 17.8036 41.7252 17.3822 40.5425 17.3486C37.7159 17.0588 34.974 18.9964 33.5341 18.9964C32.0654 18.9964 29.8481 17.3766 27.4583 17.4242C24.383 17.4704 21.5061 19.205 19.9282 21.8986C16.6719 27.3908 19.1005 35.4618 22.2203 39.9012C23.7809 42.0754 25.6045 44.503 27.9914 44.4176C30.3266 44.3238 31.1989 42.9672 34.0169 42.9672C36.8091 42.9672 37.6282 44.4176 40.0626 44.363C42.5687 44.3238 44.1466 42.179 45.6526 39.9852C47.4561 37.4932 48.1804 35.039 48.2091 34.913C48.1502 34.8934 43.3419 33.1056 43.2944 27.6974Z" fill="black"/>
<path d="M38.6959 14.4282C39.9519 12.898 40.8112 10.8162 40.5727 8.70361C38.7548 8.78201 36.4815 9.92861 35.1723 11.4252C34.0141 12.744 32.9794 14.9056 33.2467 16.9384C35.2887 17.0868 37.3854 15.9346 38.6959 14.4282Z" fill="black"/>
<path d="M70.4868 14.0127C70.4868 15.6605 69.9795 16.9009 68.9664 17.7339C68.028 18.5025 66.6945 18.8875 64.9671 18.8875C64.1107 18.8875 63.3778 18.8511 62.7642 18.7783V9.77487C63.5646 9.64887 64.4268 9.58447 65.358 9.58447C67.0034 9.58447 68.2436 9.93307 69.0799 10.6303C70.0169 11.4185 70.4868 12.5455 70.4868 14.0127ZM68.8989 14.0533C68.8989 12.9851 68.6086 12.1661 68.028 11.5949C67.4475 11.0251 66.5996 10.7395 65.483 10.7395C65.0088 10.7395 64.605 10.7703 64.2702 10.8347V17.6793C64.4556 17.7073 64.7947 17.7199 65.2876 17.7199C66.4401 17.7199 67.3296 17.4077 67.9562 16.7833C68.5827 16.1589 68.8989 15.2489 68.8989 14.0533Z" fill="black"/>
<path d="M78.9063 15.4519C78.9063 16.4669 78.6088 17.2985 78.0139 17.9509C77.3902 18.6215 76.5639 18.9561 75.5321 18.9561C74.5377 18.9561 73.7459 18.6355 73.1553 17.9915C72.5661 17.3489 72.2715 16.5383 72.2715 15.5611C72.2715 14.5391 72.5747 13.7005 73.184 13.0495C73.7933 12.3985 74.6124 12.0723 75.6442 12.0723C76.6386 12.0723 77.4376 12.3929 78.0426 13.0355C78.6174 13.6599 78.9063 14.4663 78.9063 15.4519ZM77.3442 15.4995C77.3442 14.8905 77.2091 14.3683 76.9404 13.9329C76.6243 13.4065 76.1745 13.1433 75.5896 13.1433C74.9846 13.1433 74.5248 13.4065 74.2086 13.9329C73.9384 14.3683 73.8048 14.8989 73.8048 15.5261C73.8048 16.1351 73.9399 16.6573 74.2086 17.0927C74.5348 17.6191 74.9889 17.8823 75.5752 17.8823C76.1501 17.8823 76.6013 17.6149 76.926 17.0787C77.2048 16.6349 77.3442 16.1085 77.3442 15.4995Z" fill="black"/>
<path d="M90.1958 12.2065L88.0762 18.8061H86.6966L85.8186 15.9403C85.5959 15.2249 85.4148 14.5137 85.274 13.8081H85.2467C85.1159 14.5333 84.9348 15.2431 84.702 15.9403L83.7694 18.8061H82.374L80.3809 12.2065H81.9285L82.6945 15.3439C82.8799 16.0859 83.0322 16.7929 83.1543 17.4621H83.1816C83.2937 16.9105 83.4791 16.2077 83.7406 15.3579L84.702 12.2079H85.9293L86.8504 15.2907C87.0731 16.0425 87.2542 16.7663 87.3936 17.4635H87.4353C87.5373 16.7845 87.6911 16.0607 87.8951 15.2907L88.7171 12.2079H90.1958V12.2065Z" fill="black"/>
<path d="M98.0032 18.8061H96.4972V15.0261C96.4972 13.8613 96.0431 13.2789 95.1321 13.2789C94.6851 13.2789 94.3244 13.4385 94.0442 13.7591C93.7669 14.0797 93.626 14.4577 93.626 14.8903V18.8047H92.12V14.0923C92.12 13.5127 92.1014 12.8841 92.0654 12.2037H93.3889L93.4594 13.2355H93.501C93.6763 12.9149 93.9379 12.6503 94.2813 12.4389C94.6895 12.1925 95.1464 12.0679 95.6465 12.0679C96.2788 12.0679 96.8048 12.2667 97.2229 12.6657C97.7431 13.1543 98.0032 13.8837 98.0032 14.8525V18.8061V18.8061Z" fill="black"/>
<path d="M102.156 18.806H100.652V9.17822H102.156V18.806Z" fill="black"/>
<path d="M111.023 15.4519C111.023 16.4669 110.726 17.2985 110.131 17.9509C109.507 18.6215 108.679 18.9561 107.649 18.9561C106.653 18.9561 105.861 18.6355 105.272 17.9915C104.683 17.3489 104.388 16.5383 104.388 15.5611C104.388 14.5391 104.691 13.7005 105.301 13.0495C105.91 12.3985 106.729 12.0723 107.759 12.0723C108.755 12.0723 109.553 12.3929 110.159 13.0355C110.734 13.6599 111.023 14.4663 111.023 15.4519ZM109.459 15.4995C109.459 14.8905 109.324 14.3683 109.056 13.9329C108.741 13.4065 108.29 13.1433 107.706 13.1433C107.1 13.1433 106.64 13.4065 106.325 13.9329C106.055 14.3683 105.922 14.8989 105.922 15.5261C105.922 16.1351 106.057 16.6573 106.325 17.0927C106.652 17.6191 107.106 17.8823 107.692 17.8823C108.267 17.8823 108.717 17.6149 109.041 17.0787C109.322 16.6349 109.459 16.1085 109.459 15.4995Z" fill="black"/>
<path d="M118.311 18.8063H116.959L116.847 18.0461H116.805C116.343 18.6523 115.683 18.9561 114.827 18.9561C114.187 18.9561 113.67 18.7559 113.28 18.3583C112.927 17.9971 112.75 17.5477 112.75 17.0143C112.75 16.2079 113.095 15.5933 113.789 15.1677C114.482 14.7421 115.456 14.5335 116.71 14.5433V14.4201C116.71 13.5507 116.242 13.1167 115.304 13.1167C114.635 13.1167 114.046 13.2805 113.538 13.6053L113.231 12.6421C113.861 12.2627 114.638 12.0723 115.555 12.0723C117.326 12.0723 118.214 12.9823 118.214 14.8023V17.2327C118.214 17.8921 118.247 18.4171 118.311 18.8063ZM116.748 16.5383V15.5205C115.087 15.4925 114.256 15.9363 114.256 16.8505C114.256 17.1949 114.351 17.4525 114.545 17.6247C114.739 17.7969 114.986 17.8823 115.281 17.8823C115.611 17.8823 115.92 17.7801 116.202 17.5771C116.485 17.3727 116.659 17.1137 116.723 16.7959C116.739 16.7245 116.748 16.6377 116.748 16.5383Z" fill="black"/>
<path d="M126.869 18.806H125.533L125.462 17.7462H125.42C124.994 18.5526 124.267 18.9558 123.245 18.9558C122.429 18.9558 121.749 18.6436 121.21 18.0192C120.671 17.3948 120.402 16.5842 120.402 15.5888C120.402 14.5206 120.694 13.6554 121.28 12.9946C121.848 12.3786 122.544 12.0706 123.371 12.0706C124.281 12.0706 124.918 12.3688 125.28 12.9666H125.308V9.17822H126.816V17.028C126.816 17.6706 126.833 18.2628 126.869 18.806ZM125.308 16.0228V14.9224C125.308 14.732 125.294 14.578 125.267 14.4604C125.182 14.1076 124.999 13.8108 124.722 13.5714C124.442 13.332 124.104 13.2116 123.715 13.2116C123.153 13.2116 122.713 13.4286 122.39 13.864C122.069 14.2994 121.907 14.8552 121.907 15.5342C121.907 16.1866 122.061 16.7158 122.37 17.1232C122.696 17.5572 123.136 17.7742 123.686 17.7742C124.18 17.7742 124.575 17.5936 124.876 17.231C125.166 16.8964 125.308 16.4932 125.308 16.0228Z" fill="black"/>
<path d="M139.749 15.4519C139.749 16.4669 139.452 17.2985 138.857 17.9509C138.233 18.6215 137.408 18.9561 136.375 18.9561C135.382 18.9561 134.59 18.6355 133.998 17.9915C133.409 17.3489 133.114 16.5383 133.114 15.5611C133.114 14.5391 133.417 13.7005 134.027 13.0495C134.636 12.3985 135.455 12.0723 136.488 12.0723C137.481 12.0723 138.282 12.3929 138.885 13.0355C139.46 13.6599 139.749 14.4663 139.749 15.4519ZM138.188 15.4995C138.188 14.8905 138.053 14.3683 137.785 13.9329C137.467 13.4065 137.019 13.1433 136.432 13.1433C135.829 13.1433 135.369 13.4065 135.051 13.9329C134.781 14.3683 134.648 14.8989 134.648 15.5261C134.648 16.1351 134.783 16.6573 135.051 17.0927C135.378 17.6191 135.832 17.8823 136.418 17.8823C136.993 17.8823 137.445 17.6149 137.77 17.0787C138.048 16.6349 138.188 16.1085 138.188 15.4995Z" fill="black"/>
<path d="M147.847 18.8061H146.342V15.0261C146.342 13.8613 145.888 13.2789 144.976 13.2789C144.529 13.2789 144.168 13.4385 143.889 13.7591C143.611 14.0797 143.471 14.4577 143.471 14.8903V18.8047H141.964V14.0923C141.964 13.5127 141.947 12.8841 141.911 12.2037H143.233L143.303 13.2355H143.345C143.522 12.9149 143.783 12.6503 144.125 12.4389C144.535 12.1925 144.99 12.0679 145.492 12.0679C146.123 12.0679 146.649 12.2667 147.067 12.6657C147.588 13.1543 147.847 13.8837 147.847 14.8525V18.8061V18.8061Z" fill="black"/>
<path d="M157.982 13.3056H156.324V16.5116C156.324 17.3264 156.618 17.7338 157.202 17.7338C157.472 17.7338 157.696 17.7114 157.873 17.6652L157.912 18.7782C157.614 18.8874 157.223 18.942 156.742 18.942C156.147 18.942 155.684 18.7656 155.35 18.4128C155.013 18.06 154.847 17.4664 154.847 16.6334V13.3056H153.856V12.2066H154.847V10.997L156.322 10.563V12.2052H157.981V13.3056H157.982Z" fill="black"/>
<path d="M165.955 18.806H164.448V15.054C164.448 13.871 163.993 13.2788 163.084 13.2788C162.385 13.2788 161.908 13.6218 161.647 14.3078C161.602 14.452 161.576 14.6284 161.576 14.8356V18.8046H160.072V9.17822H161.576V13.1556H161.605C162.079 12.4318 162.759 12.0706 163.64 12.0706C164.264 12.0706 164.78 12.2694 165.189 12.6684C165.699 13.1654 165.955 13.9046 165.955 14.8818V18.806V18.806Z" fill="black"/>
<path d="M174.179 15.1942C174.179 15.4574 174.159 15.6786 174.123 15.8592H169.606C169.626 16.5116 169.842 17.0086 170.26 17.353C170.642 17.661 171.135 17.815 171.739 17.815C172.407 17.815 173.016 17.7114 173.565 17.5028L173.801 18.522C173.159 18.7936 172.403 18.9294 171.528 18.9294C170.479 18.9294 169.652 18.6284 169.054 18.0264C168.454 17.4244 168.156 16.6166 168.156 15.603C168.156 14.6076 168.434 13.7788 168.993 13.118C169.576 12.4124 170.365 12.0596 171.361 12.0596C172.335 12.0596 173.075 12.4124 173.575 13.118C173.979 13.678 174.179 14.371 174.179 15.1942ZM172.742 14.8148C172.753 14.3794 172.654 14.0042 172.45 13.6878C172.189 13.2804 171.791 13.076 171.252 13.076C170.76 13.076 170.359 13.2748 170.053 13.6738C169.803 13.9916 169.655 14.371 169.606 14.8148H172.742Z" fill="black"/>
<path d="M77.0899 44.1053H73.8264L72.0387 38.6327H65.825L64.1221 44.1053H60.9448L67.1011 25.4741H70.9035L77.0899 44.1053ZM71.4999 36.3367L69.8832 31.4717C69.7122 30.9747 69.3917 29.8043 68.9189 27.9619H68.8615C68.6732 28.7543 68.37 29.9247 67.9533 31.4717L66.3653 36.3367H71.4999V36.3367Z" fill="black"/>
<path d="M92.9218 37.2228C92.9218 39.5076 92.288 41.3136 91.0205 42.6394C89.8853 43.8196 88.4756 44.409 86.7928 44.409C84.9764 44.409 83.6715 43.7734 82.8769 42.5022H82.8194V49.5792H79.7556V35.0934C79.7556 33.657 79.7168 32.1828 79.6421 30.6708H82.3365L82.5075 32.8002H82.565C83.5868 31.1958 85.1373 30.395 87.2181 30.395C88.8449 30.395 90.2029 31.0208 91.2893 32.2738C92.3785 33.5282 92.9218 35.1774 92.9218 37.2228ZM89.8005 37.332C89.8005 36.0244 89.4987 34.9464 88.8923 34.098C88.2298 33.2132 87.3403 32.7708 86.2252 32.7708C85.4693 32.7708 84.7824 33.0172 84.1688 33.503C83.5537 33.993 83.1513 34.6328 82.9631 35.4252C82.8682 35.7948 82.8208 36.0972 82.8208 36.3352V38.5752C82.8208 39.5524 83.1283 40.377 83.7434 41.0504C84.3584 41.7238 85.1574 42.0598 86.1404 42.0598C87.2943 42.0598 88.1925 41.6258 88.8348 40.7606C89.4786 39.894 89.8005 38.7516 89.8005 37.332Z" fill="black"/>
<path d="M108.782 37.2228C108.782 39.5076 108.148 41.3136 106.879 42.6394C105.746 43.8196 104.336 44.409 102.653 44.409C100.837 44.409 99.5319 43.7734 98.7387 42.5022H98.6812V49.5792H95.6174V35.0934C95.6174 33.657 95.5786 32.1828 95.5039 30.6708H98.1984L98.3694 32.8002H98.4268C99.4471 31.1958 100.998 30.395 103.08 30.395C104.705 30.395 106.063 31.0208 107.153 32.2738C108.237 33.5282 108.782 35.1774 108.782 37.2228ZM105.661 37.332C105.661 36.0244 105.358 34.9464 104.751 34.098C104.089 33.2132 103.202 32.7708 102.086 32.7708C101.328 32.7708 100.643 33.0172 100.028 33.503C99.4127 33.993 99.0117 34.6328 98.8235 35.4252C98.7301 35.7948 98.6812 36.0972 98.6812 36.3352V38.5752C98.6812 39.5524 98.9887 40.377 99.6009 41.0504C100.216 41.7224 101.015 42.0598 102.001 42.0598C103.155 42.0598 104.053 41.6258 104.695 40.7606C105.339 39.894 105.661 38.7516 105.661 37.332Z" fill="black"/>
<path d="M126.516 38.8806C126.516 40.4654 125.951 41.7548 124.817 42.7502C123.571 43.838 121.837 44.3812 119.608 44.3812C117.55 44.3812 115.9 43.9948 114.651 43.2206L115.361 40.7328C116.706 41.5252 118.182 41.9228 119.79 41.9228C120.944 41.9228 121.842 41.668 122.488 41.1612C123.13 40.6544 123.45 39.974 123.45 39.1256C123.45 38.3696 123.186 37.7326 122.656 37.216C122.128 36.6994 121.247 36.2192 120.017 35.7754C116.669 34.5588 114.996 32.7766 114.996 30.433C114.996 28.9014 115.583 27.6456 116.757 26.6684C117.926 25.6898 119.487 25.2012 121.438 25.2012C123.179 25.2012 124.624 25.4966 125.778 26.086L125.012 28.5192C123.935 27.948 122.716 27.6624 121.352 27.6624C120.274 27.6624 119.432 27.9214 118.829 28.4366C118.319 28.8972 118.063 29.4586 118.063 30.1236C118.063 30.86 118.355 31.469 118.941 31.9478C119.451 32.3902 120.378 32.869 121.723 33.3856C123.368 34.031 124.577 34.7856 125.354 35.6508C126.129 36.5132 126.516 37.5926 126.516 38.8806Z" fill="black"/>
<path d="M136.645 32.9111H133.268V39.4337C133.268 41.0927 133.863 41.9215 135.056 41.9215C135.603 41.9215 136.057 41.8753 136.417 41.7829L136.501 44.0495C135.898 44.2693 135.103 44.3799 134.119 44.3799C132.909 44.3799 131.963 44.0201 131.281 43.3019C130.601 42.5823 130.259 41.3755 130.259 39.6801V32.9083H128.247V30.6683H130.259V28.2085L133.268 27.3237V30.6683H136.645V32.9111Z" fill="black"/>
<path d="M151.882 37.2775C151.882 39.3425 151.275 41.0379 150.065 42.3637C148.796 43.7287 147.112 44.4091 145.013 44.4091C142.989 44.4091 141.378 43.7553 140.177 42.4477C138.976 41.1401 138.375 39.4895 138.375 37.5001C138.375 35.4183 138.993 33.7131 140.233 32.3873C141.47 31.0601 143.14 30.3965 145.24 30.3965C147.263 30.3965 148.891 31.0503 150.12 32.3593C151.295 33.6291 151.882 35.2685 151.882 37.2775ZM148.703 37.3741C148.703 36.1351 148.431 35.0725 147.881 34.1863C147.239 33.1139 146.32 32.5791 145.131 32.5791C143.899 32.5791 142.963 33.1153 142.321 34.1863C141.771 35.0739 141.499 36.1533 141.499 37.4301C141.499 38.6691 141.771 39.7317 142.321 40.6165C142.984 41.6889 143.909 42.2237 145.103 42.2237C146.273 42.2237 147.191 41.6777 147.854 40.5885C148.418 39.6855 148.703 38.6117 148.703 37.3741Z" fill="black"/>
<path d="M161.841 33.2958C161.537 33.2412 161.214 33.2132 160.875 33.2132C159.797 33.2132 158.964 33.6094 158.377 34.4032C157.867 35.1032 157.611 35.988 157.611 37.0562V44.1052H154.549L154.578 34.9016C154.578 33.3532 154.539 31.9434 154.463 30.6722H157.131L157.244 33.2426H157.328C157.652 32.3592 158.162 31.648 158.86 31.1146C159.543 30.6344 160.28 30.395 161.075 30.395C161.358 30.395 161.614 30.4146 161.841 30.4496V33.2958Z" fill="black"/>
<path d="M175.543 36.7527C175.543 37.2875 175.507 37.7383 175.431 38.1065H166.239C166.275 39.4337 166.719 40.4487 167.573 41.1487C168.347 41.7745 169.349 42.0881 170.579 42.0881C171.94 42.0881 173.182 41.8767 174.298 41.4525L174.778 43.5245C173.473 44.0789 171.933 44.3547 170.155 44.3547C168.017 44.3547 166.338 43.7415 165.117 42.5165C163.898 41.2915 163.288 39.6465 163.288 37.5829C163.288 35.5571 163.855 33.8701 164.992 32.5247C166.182 31.0883 167.79 30.3701 169.813 30.3701C171.801 30.3701 173.305 31.0883 174.327 32.5247C175.136 33.6657 175.543 35.0769 175.543 36.7527ZM172.621 35.9785C172.641 35.0937 172.442 34.3293 172.026 33.6839C171.496 32.8537 170.681 32.4393 169.585 32.4393C168.583 32.4393 167.768 32.8439 167.146 33.6559C166.636 34.3013 166.333 35.0755 166.239 35.9771H172.621V35.9785Z" fill="black"/>
</svg>
