<svg width="195" height="56" viewBox="0 0 195 56" fill="none" xmlns="http://www.w3.org/2000/svg">
<path d="M187.778 56H7.22222C3.25181 56 0 52.8482 0 49V7C0 3.15175 3.25181 9.53674e-07 7.22222 9.53674e-07H187.778C191.748 9.53674e-07 195 3.15175 195 7V49C195 52.8482 191.748 56 187.778 56Z" fill="white"/>
<path d="M187.778 1.12175C191.122 1.12175 193.843 3.759 193.843 7V49C193.843 52.241 191.122 54.8783 187.778 54.8783H7.22222C3.87833 54.8783 1.15736 52.241 1.15736 49V7C1.15736 3.759 3.87833 1.12175 7.22222 1.12175H187.778ZM187.778 9.53674e-07H7.22222C3.25181 9.53674e-07 0 3.15175 0 7V49C0 52.8482 3.25181 56 7.22222 56H187.778C191.748 56 195 52.8482 195 49V7C195 3.15175 191.748 9.53674e-07 187.778 9.53674e-07Z" fill="#A6A6A6"/>
<path d="M13.9892 10.5539C13.5649 10.9844 13.3193 11.6546 13.3193 12.5226V43.4836C13.3193 44.3516 13.5649 45.0219 13.9892 45.4524L14.0939 45.5469L31.9942 28.2044V27.7949L14.0939 10.4524L13.9892 10.5539Z" fill="black"/>
<path d="M40.1213 33.9883L34.1611 28.2045V27.795L40.1285 22.0113L40.2621 22.0865L47.329 25.9838C49.3459 27.0898 49.3459 28.9098 47.329 30.0228L40.2621 33.913L40.1213 33.9883Z" fill="black"/>
<path d="M39.1782 34.9901L33.0773 29.0769L15.0723 46.5296C15.7421 47.2121 16.8345 47.2944 18.0767 46.6119L39.1782 34.9901Z" fill="black"/>
<path d="M39.1782 21.0096L18.0767 9.38786C16.8345 8.71236 15.7421 8.79461 15.0723 9.4771L33.0773 26.9229L39.1782 21.0096Z" fill="black"/>
<path d="M68.492 14.3411C68.492 15.5101 68.1309 16.4463 67.4195 17.1446C66.6016 17.9723 65.5363 18.3888 64.2309 18.3888C62.9833 18.3888 61.918 17.9653 61.0441 17.1306C60.1684 16.2836 59.7314 15.2441 59.7314 13.9998C59.7314 12.7556 60.1684 11.7161 61.0441 10.8761C61.918 10.0343 62.9833 9.61084 64.2309 9.61084C64.852 9.61084 65.4442 9.73509 66.0094 9.96609C66.5727 10.1988 67.0313 10.5138 67.3635 10.9023L66.6088 11.6408C66.0292 10.9776 65.2402 10.6503 64.2309 10.6503C63.3209 10.6503 62.5319 10.9583 61.862 11.5796C61.1994 12.2026 60.8671 13.0093 60.8671 13.9998C60.8671 14.9903 61.1994 15.8041 61.862 16.4271C62.5319 17.0413 63.3209 17.3563 64.2309 17.3563C65.1969 17.3563 66.0094 17.0413 66.6503 16.4201C67.0728 16.0088 67.313 15.4418 67.3762 14.7173H64.2309V13.7058H68.427C68.4776 13.9246 68.492 14.1363 68.492 14.3411Z" fill="black" stroke="black" stroke-width="0.16" stroke-miterlimit="10"/>
<path d="M75.1492 10.8345H71.2076V13.4945H74.761V14.506H71.2076V17.166H75.1492V18.1967H70.0918V9.80371H75.1492V10.8345Z" fill="black" stroke="black" stroke-width="0.16" stroke-miterlimit="10"/>
<path d="M79.8469 18.1967H78.7311V10.8345H76.3135V9.80371H82.2664V10.8345H79.8469V18.1967Z" fill="black" stroke="black" stroke-width="0.16" stroke-miterlimit="10"/>
<path d="M86.5742 18.1967V9.80371H87.6882V18.1967H86.5742Z" fill="black" stroke="black" stroke-width="0.16" stroke-miterlimit="10"/>
<path d="M92.6272 18.1967H91.5204V10.8345H89.0938V9.80371H95.0539V10.8345H92.6272V18.1967Z" fill="black" stroke="black" stroke-width="0.16" stroke-miterlimit="10"/>
<path d="M106.323 17.1166C105.469 17.9653 104.411 18.3888 103.149 18.3888C101.88 18.3888 100.822 17.9653 99.9679 17.1166C99.1157 16.2696 98.6914 15.2301 98.6914 13.9998C98.6914 12.7696 99.1157 11.7301 99.9679 10.8831C100.822 10.0343 101.88 9.61084 103.149 9.61084C104.404 9.61084 105.462 10.0343 106.316 10.8901C107.176 11.7441 107.6 12.7766 107.6 13.9998C107.6 15.2301 107.176 16.2696 106.323 17.1166ZM100.793 16.4131C101.436 17.0413 102.218 17.3563 103.149 17.3563C104.074 17.3563 104.863 17.0413 105.498 16.4131C106.139 15.7848 106.464 14.9781 106.464 13.9998C106.464 13.0216 106.139 12.2148 105.498 11.5866C104.863 10.9583 104.074 10.6433 103.149 10.6433C102.218 10.6433 101.436 10.9583 100.793 11.5866C100.152 12.2148 99.8271 13.0216 99.8271 13.9998C99.8271 14.9781 100.152 15.7848 100.793 16.4131Z" fill="black" stroke="black" stroke-width="0.16" stroke-miterlimit="10"/>
<path d="M109.166 18.1967V9.80371H110.52L114.731 16.3312H114.779L114.731 14.7177V9.80371H115.845V18.1967H114.682L110.273 11.3472H110.224L110.273 12.9677V18.1967H109.166Z" fill="black" stroke="black" stroke-width="0.16" stroke-miterlimit="10"/>
<path d="M98.4165 30.4535C95.0239 30.4535 92.2523 32.956 92.2523 36.4088C92.2523 39.8335 95.0239 42.3622 98.4165 42.3622C101.816 42.3622 104.588 39.8335 104.588 36.4088C104.588 32.956 101.816 30.4535 98.4165 30.4535ZM98.4165 40.0172C96.555 40.0172 94.9534 38.528 94.9534 36.4088C94.9534 34.2615 96.555 32.7985 98.4165 32.7985C100.278 32.7985 101.887 34.2615 101.887 36.4088C101.887 38.528 100.278 40.0172 98.4165 40.0172ZM84.9669 30.4535C81.5671 30.4535 78.8028 32.956 78.8028 36.4088C78.8028 39.8335 81.5671 42.3622 84.9669 42.3622C88.365 42.3622 91.1311 39.8335 91.1311 36.4088C91.1311 32.956 88.365 30.4535 84.9669 30.4535ZM84.9669 40.0172C83.1036 40.0172 81.4967 38.528 81.4967 36.4088C81.4967 34.2615 83.1036 32.7985 84.9669 32.7985C86.8284 32.7985 88.43 34.2615 88.43 36.4088C88.43 38.528 86.8284 40.0172 84.9669 40.0172ZM68.9625 32.2788V34.8093H75.1971C75.0147 36.2233 74.5272 37.2627 73.7797 37.9872C72.8697 38.8622 71.4523 39.8335 68.9625 39.8335C65.1257 39.8335 62.1212 36.8323 62.1212 33.1135C62.1212 29.3948 65.1257 26.3935 68.9625 26.3935C71.0371 26.3935 72.5465 27.1793 73.6605 28.1978L75.5004 26.4145C73.9422 24.9725 71.8694 23.8647 68.9625 23.8647C63.7011 23.8647 59.2793 28.014 59.2793 33.1135C59.2793 38.213 63.7011 42.3622 68.9625 42.3622C71.8062 42.3622 73.9422 41.4592 75.6214 39.7652C77.3421 38.0975 77.8783 35.7525 77.8783 33.859C77.8783 33.271 77.8278 32.7302 77.7375 32.2788H68.9625ZM134.407 34.2405C133.899 32.9087 132.334 30.4535 129.145 30.4535C125.986 30.4535 123.355 32.8668 123.355 36.4088C123.355 39.7442 125.958 42.3622 129.449 42.3622C132.271 42.3622 133.899 40.6945 134.569 39.7232L132.475 38.3705C131.776 39.361 130.824 40.0172 129.449 40.0172C128.082 40.0172 127.101 39.41 126.473 38.213L134.69 34.9177L134.407 34.2405ZM126.029 36.2232C125.958 33.9272 127.869 32.7513 129.237 32.7513C130.31 32.7513 131.22 33.271 131.523 34.0147L126.029 36.2232ZM119.35 42H122.051V24.5H119.35V42ZM114.926 31.78H114.836C114.23 31.0835 113.072 30.4535 111.606 30.4535C108.529 30.4535 105.716 33.0715 105.716 36.428C105.716 39.7652 108.529 42.3622 111.606 42.3622C113.072 42.3622 114.23 41.727 114.836 41.0095H114.926V41.8635C114.926 44.1402 113.672 45.3635 111.648 45.3635C109.997 45.3635 108.974 44.2085 108.551 43.2372L106.202 44.1875C106.879 45.766 108.672 47.7085 111.648 47.7085C114.815 47.7085 117.487 45.9025 117.487 41.5082V30.8157H114.926V31.78ZM111.837 40.0172C109.976 40.0172 108.417 38.507 108.417 36.428C108.417 34.3297 109.976 32.7985 111.837 32.7985C113.672 32.7985 115.118 34.3297 115.118 36.428C115.118 38.507 113.672 40.0172 111.837 40.0172ZM147.053 24.5H140.592V42H143.286V35.3692H147.053C150.045 35.3692 152.979 33.271 152.979 29.9337C152.979 26.5982 150.037 24.5 147.053 24.5ZM147.123 32.935H143.286V26.9343H147.123C149.135 26.9343 150.283 28.553 150.283 29.9337C150.283 31.2882 149.135 32.935 147.123 32.935ZM163.776 30.4202C161.829 30.4202 159.805 31.2532 158.973 33.0995L161.364 34.0707C161.878 33.0995 162.824 32.7845 163.825 32.7845C165.222 32.7845 166.639 33.5983 166.661 35.035V35.2187C166.174 34.9457 165.13 34.5415 163.846 34.5415C161.271 34.5415 158.648 35.9153 158.648 38.479C158.648 40.824 160.757 42.3342 163.128 42.3342C164.94 42.3342 165.941 41.5415 166.569 40.6192H166.661V41.972H169.263V35.259C169.263 32.1563 166.872 30.4202 163.776 30.4202ZM163.451 40.0102C162.57 40.0102 161.342 39.5867 161.342 38.528C161.342 37.1735 162.873 36.6537 164.198 36.6537C165.385 36.6537 165.941 36.9075 166.661 37.2417C166.45 38.8622 165.011 40.0102 163.451 40.0102ZM178.742 30.8035L175.646 38.3897H175.553L172.352 30.8035H169.447L174.257 41.405L171.513 47.3042H174.327L181.739 30.8035H178.742ZM154.459 42H157.16V24.5H154.459V42Z" fill="black"/>
</svg>
