<svg width="40" height="40" viewBox="0 0 40 40" fill="none" xmlns="http://www.w3.org/2000/svg">
<rect x="0.5" y="0.5" width="39" height="39" rx="11.5" fill="#ECFDF7"/>
<rect x="0.5" y="0.5" width="39" height="39" rx="11.5" stroke="#D1FAEC"/>
<path d="M19 12H24.5C26.9853 12 29 14.0147 29 16.5M20.1027 13.2437L19.3973 12.2563C18.8342 11.4679 17.925 11 16.9561 11H15C12.2386 11 10 13.2386 10 16V24C10 26.7614 12.2386 29 15 29H25C27.7614 29 30 26.7614 30 24V19.5C30 16.7386 27.7614 14.5 25 14.5H22.5439C21.575 14.5 20.6658 14.0321 20.1027 13.2437Z" stroke="#0B8582" stroke-width="1.5"/>
<path d="M20 24.5H26" stroke="#0B8582" stroke-width="1.5" stroke-linecap="round" stroke-linejoin="round"/>
</svg>
