<svg width="40" height="40" viewBox="0 0 40 40" fill="none" xmlns="http://www.w3.org/2000/svg">
<rect x="0.5" y="0.5" width="39" height="39" rx="11.5" fill="#ECFDF7"/>
<rect x="0.5" y="0.5" width="39" height="39" rx="11.5" stroke="#D1FAEC"/>
<path d="M16.222 18.136H24.282M16.222 22.364H21.97M20.252 29.5C22.2614 29.4996 24.216 28.8448 25.8202 27.6348C27.4244 26.4248 28.591 24.7253 29.1435 22.7934C29.696 20.8615 29.6044 18.8021 28.8825 16.9269C28.1606 15.0517 26.8477 13.4625 25.1424 12.3997C23.4371 11.3369 21.432 10.8584 19.4306 11.0364C17.4291 11.2144 15.54 12.0393 14.049 13.3864C12.558 14.7334 11.5462 16.5293 11.1666 18.5025C10.787 20.4758 11.0602 22.5189 11.945 24.323C12.053 24.543 12.089 24.791 12.034 25.029L11.218 28.565C11.195 28.6642 11.1976 28.7677 11.2257 28.8656C11.2537 28.9636 11.3062 29.0527 11.3782 29.1248C11.4503 29.1968 11.5394 29.2493 11.6374 29.2773C11.7353 29.3054 11.8388 29.308 11.938 29.285L15.473 28.468C15.7117 28.4157 15.9611 28.4475 16.179 28.558C17.4464 29.1804 18.84 29.5027 20.252 29.5Z" stroke="#0B8582" stroke-width="1.5" stroke-linecap="round" stroke-linejoin="round"/>
</svg>
