<svg width="40" height="40" viewBox="0 0 40 40" fill="none" xmlns="http://www.w3.org/2000/svg">
<rect x="0.5" y="0.5" width="39" height="39" rx="11.5" fill="#ECFDF7"/>
<rect x="0.5" y="0.5" width="39" height="39" rx="11.5" stroke="#D1FAEC"/>
<path d="M17.5 10.9999H18.5C19.6046 10.9999 20.5 11.8953 20.5 12.9999V17C20.5 19.7614 18.2614 22 15.5 22M13.5 10.9999H12.5C11.3954 10.9999 10.5 11.8953 10.5 12.9999V17C10.5 19.7614 12.7386 22 15.5 22M15.5 22V24.5C15.5 27.5376 17.9624 30 21 30C24.0376 30 26.5 27.5376 26.5 24.5V23.5M26.5 23.5C27.8807 23.5 29 22.3807 29 21C29 19.6193 27.8807 18.5 26.5 18.5C25.1193 18.5 24 19.6193 24 21C24 22.3807 25.1193 23.5 26.5 23.5ZM17.5 10L17.5 11.9998M13.5 10V12" stroke="#0B8582" stroke-width="1.5" stroke-linecap="round" stroke-linejoin="round"/>
</svg>
