<svg width="82" height="32" viewBox="0 0 82 32" fill="none" xmlns="http://www.w3.org/2000/svg">
<mask id="mask0_808_23" style="mask-type:luminance" maskUnits="userSpaceOnUse" x="0" y="0" width="82" height="32">
<path d="M82 0H0V31.5791H82V0Z" fill="white"/>
</mask>
<g mask="url(#mask0_808_23)">
<path d="M44.4883 17.0083C44.5371 17.0049 44.586 17.0049 44.6348 17.0083H44.3418C44.3906 17.0049 44.4395 17.0049 44.4883 17.0083Z" fill="#00A376"/>
<path d="M34.7858 17.0175H34.4287C34.5471 16.9995 34.6675 16.9995 34.7858 17.0175Z" fill="#00A376"/>
<path d="M49.4007 21.8768L49.3418 21.6714C49.3696 21.7372 49.3894 21.8062 49.4007 21.8768Z" fill="#00939D"/>
<path d="M60.1875 21.8926C60.1992 21.8075 60.2225 21.7245 60.2576 21.6461L60.1875 21.8926Z" fill="#00939D"/>
<path d="M53.554 21.7306L53.4453 22.0616C53.4672 21.947 53.5037 21.8357 53.554 21.7306Z" fill="#00939D"/>
<path d="M54.9841 20.9637H54.6113C54.6723 20.9546 54.7342 20.9501 54.7967 20.9502C54.8592 20.9501 54.9222 20.9546 54.9841 20.9637Z" fill="#00939D"/>
<path d="M56.1497 22.0616L56.041 21.7306C56.0913 21.8357 56.1279 21.947 56.1497 22.0616Z" fill="#00939D"/>
<path d="M20.1708 23.4196C18.2047 20.4834 15.7829 17.8772 12.996 15.6982C12.8193 15.5631 12.5994 15.4967 12.3772 15.5114C12.155 15.5261 11.9458 15.6209 11.7887 15.7781C11.6317 15.9371 11.5399 16.1486 11.531 16.3714C11.5221 16.5942 11.5968 16.8123 11.7406 16.9832C14.6616 20.4765 16.7791 24.565 17.9441 28.9612C17.9969 29.1526 18.1109 29.3217 18.2688 29.4428C18.4267 29.5639 18.62 29.6304 18.8192 29.6322C18.8512 29.6344 18.8834 29.6344 18.9154 29.6322C19.1307 29.6104 19.3309 29.5122 19.4793 29.3555C19.6279 29.1987 19.7147 28.9939 19.7241 28.7786C19.7982 27.2087 19.9927 25.6468 20.306 24.1066C20.3299 23.9888 20.3303 23.8675 20.3071 23.7496C20.2839 23.6317 20.2376 23.5196 20.1708 23.4196Z" fill="#00939D"/>
<path d="M39.4422 0.607059C39.3688 0.451193 39.2526 0.319199 39.1071 0.226313C38.9616 0.133427 38.7926 0.0834341 38.6198 0.0821074C38.5045 0.0814369 38.3901 0.103143 38.2831 0.146014C36.2741 0.947483 34.3509 1.94761 32.5422 3.13138C32.1437 3.39157 31.7588 3.65633 31.3969 3.91881C27.4198 6.76825 24.1411 10.477 21.806 14.7674C19.471 19.0578 18.1402 23.8188 17.9131 28.6941V28.733C17.9142 28.8101 17.925 28.8867 17.9452 28.9612C18.0322 29.283 18.1124 29.6071 18.188 29.9357C18.216 30.0537 18.2673 30.1649 18.3389 30.2628C18.4104 30.3608 18.5009 30.4436 18.6049 30.5064L18.6668 30.5429C18.7294 30.5782 18.7954 30.6072 18.8638 30.6296L20.9255 31.2687C21.0122 31.296 21.1026 31.3099 21.1935 31.3098C21.3139 31.3082 21.4327 31.2832 21.5433 31.2359C21.6539 31.1887 21.7541 31.1202 21.8381 31.0343C21.9222 30.9485 21.9884 30.847 22.0331 30.7356C22.0777 30.6243 22.0999 30.5053 22.0984 30.3854V30.2073C22.0984 30.0179 22.0984 29.8285 22.0984 29.6391C22.0984 28.8083 22.1305 27.9706 22.1969 27.149C22.512 23.043 23.64 19.0398 25.5159 15.3705C27.3918 11.7011 29.9784 8.43815 33.1264 5.7698C33.4265 5.51421 33.7472 5.24942 34.0725 4.99153L34.1 4.97327C35.6449 3.75658 37.3008 2.68679 39.0459 1.77792C39.2496 1.67016 39.4042 1.48879 39.4779 1.27105C39.5516 1.05331 39.5388 0.81572 39.4422 0.607059Z" fill="#69DBC8"/>
<path d="M2.71989 24.2523C2.5306 24.252 2.34504 24.2 2.18344 24.1017C2.02185 24.0035 1.89044 23.863 1.80356 23.6954C0.285171 20.7478 -0.293758 17.4086 0.144205 14.1243C0.58217 10.84 2.01614 7.76726 4.25436 5.31692C6.49255 2.86659 9.4283 1.15551 12.669 0.412496C15.9097 -0.330513 19.3008 -0.0700233 22.3889 1.15913C22.5196 1.20545 22.6396 1.27758 22.7417 1.37121C22.8438 1.46483 22.9258 1.57803 22.9829 1.704C23.04 1.82997 23.0711 1.96614 23.0741 2.10434C23.0771 2.24254 23.0521 2.37993 23.0006 2.50827C22.9491 2.63661 22.872 2.75328 22.7742 2.85127C22.6763 2.94925 22.5596 3.02655 22.4311 3.07853C22.3025 3.13051 22.1647 3.15609 22.026 3.15375C21.8873 3.15142 21.7505 3.12121 21.6238 3.06493C18.925 1.98839 15.9605 1.75905 13.1273 2.40761C10.2941 3.05616 7.72741 4.55166 5.77095 6.69384C3.81445 8.83601 2.56155 11.5226 2.18004 14.3939C1.79852 17.2652 2.3066 20.184 3.63622 22.7597C3.71713 22.9162 3.75628 23.0908 3.74991 23.2668C3.74354 23.4428 3.69187 23.6142 3.59986 23.7645C3.50785 23.9149 3.37858 24.0391 3.22448 24.1254C3.07038 24.2116 2.89663 24.2569 2.71989 24.2569V24.2523Z" fill="#69DBC8"/>
<path d="M73.5052 25.8274C73.5052 25.7384 73.5052 25.6517 73.4847 25.565C73.3935 24.3568 72.9113 23.2108 72.1102 22.2989C71.1713 21.2337 69.9331 20.7012 68.3972 20.7012C67.6909 20.6824 66.9893 20.8133 66.3379 21.0852C65.6865 21.3571 65.1008 21.7638 64.6195 22.2783C63.6283 23.3136 63.0902 24.6985 63.1235 26.1287C63.1235 27.7447 63.6365 29.0563 64.6631 30.0635C65.6891 31.0708 66.9919 31.5745 68.5709 31.5745C69.9546 31.5745 71.1185 31.2656 72.062 30.6478C72.2491 30.5235 72.3839 30.3351 72.4403 30.1184C72.4972 29.9016 72.4715 29.6717 72.369 29.4724L72.2225 29.2624C72.1369 29.1697 72.0328 29.0956 71.917 29.0449C71.8007 28.9942 71.6756 28.9681 71.549 28.968C71.4296 28.9679 71.3107 28.992 71.201 29.0387C71.1231 29.089 71.0427 29.1369 70.9581 29.1848C70.2955 29.5359 69.5575 29.723 68.8072 29.7303C67.9661 29.7643 67.1451 29.4723 66.5163 28.9155C65.9346 28.3861 65.5733 27.659 65.5036 26.8773H72.4152C72.6975 26.8758 72.9687 26.7658 73.1716 26.5702C73.3746 26.3747 73.4945 26.1086 73.5052 25.8274ZM65.4739 25.2957C65.5256 24.5793 65.8213 23.9021 66.3123 23.3762C66.813 22.8269 67.509 22.5514 68.3992 22.5499C69.334 22.5499 70.0479 22.8291 70.5409 23.3875C71.0222 23.9103 71.301 24.5868 71.3271 25.2957H65.4739Z" fill="#00939D"/>
<path d="M62.4094 22.0754C62.4104 22.152 62.4027 22.2286 62.3863 22.3036V22.3287L62.334 22.4976C62.333 22.5021 62.333 22.5068 62.334 22.5113L60.0063 29.977C60.0063 29.977 59.8874 30.3604 59.8848 30.3627C59.7572 30.6385 59.5553 30.8734 59.3016 31.0415C59.0479 31.2096 58.7522 31.3041 58.4477 31.3145C58.1428 31.3249 57.8415 31.2508 57.577 31.1005C57.312 30.9502 57.0942 30.7295 56.9482 30.4631L54.8085 23.7232L52.7031 30.3581C52.5745 30.6334 52.3721 30.8678 52.1173 31.0351C51.8631 31.2024 51.5674 31.2961 51.2625 31.3058C50.9579 31.3156 50.6566 31.2408 50.392 31.0901C50.1275 30.9393 49.9101 30.7183 49.7641 30.4517L49.5808 29.8674L47.29 22.5136L47.2213 22.2967C47.2048 22.2218 47.1971 22.1452 47.1984 22.0685C47.1984 21.8092 47.2892 21.5579 47.4552 21.3582C47.6211 21.1584 47.8519 21.0226 48.1076 20.9742C48.3633 20.9258 48.628 20.9678 48.8559 21.093C49.0839 21.2182 49.2609 21.4187 49.3564 21.6599L49.4159 21.8653L51.3471 28.4843L53.457 22.0617L53.5667 21.7307C53.6651 21.5256 53.8132 21.3481 53.9977 21.2142C54.1822 21.0803 54.3969 20.9943 54.623 20.9638H54.9966C55.2226 20.9943 55.4373 21.0803 55.6218 21.2142C55.8063 21.3481 55.9539 21.5256 56.0523 21.7307L56.1625 22.0617L58.1254 28.0621L58.2679 28.4911L58.398 28.0347L60.1872 21.8973L60.2584 21.6508C60.3583 21.4134 60.5377 21.2178 60.7663 21.0973C60.9949 20.9769 61.2578 20.939 61.511 20.9901C61.7646 21.0412 61.9922 21.1782 62.1557 21.3777C62.3187 21.5772 62.4078 21.827 62.4073 22.0845L62.4094 22.0754Z" fill="#00939D"/>
<path d="M45.7542 18.1357V25.6676C45.7542 27.4936 45.2273 28.939 44.1735 30.0042C43.1197 31.0693 41.5848 31.5942 39.5689 31.579C37.5316 31.579 35.9861 31.0503 34.9323 29.9928C33.8785 28.9353 33.3471 27.4981 33.3379 25.6813V18.1038C33.3762 17.8291 33.5034 17.5744 33.7002 17.3783C33.897 17.1822 34.1527 17.0555 34.4283 17.0174H34.7857C35.064 17.0562 35.3218 17.1852 35.5192 17.3844C35.7167 17.5836 35.8429 17.8421 35.8784 18.1198V25.5969C35.8784 26.7533 36.1976 27.6663 36.836 28.3358C37.4728 29.009 38.3823 29.3446 39.5575 29.3446C40.7327 29.3446 41.6375 29.009 42.2698 28.3358C42.9021 27.6624 43.2182 26.7495 43.2182 25.5969V18.1357C43.251 17.8504 43.3798 17.5846 43.5836 17.3815C43.7875 17.1784 44.0543 17.0501 44.3407 17.0174H44.634C44.9201 17.0501 45.1866 17.1786 45.39 17.3817C45.5935 17.5848 45.7218 17.8506 45.7542 18.1357Z" fill="#00939D"/>
<path d="M76.2893 17.0062C76.0023 17.0088 75.7266 17.1186 75.517 17.3139C75.3074 17.5091 75.1793 17.7756 75.1572 18.0607V30.2372C75.1798 30.5208 75.3084 30.7856 75.518 30.9787C75.7276 31.1718 76.0023 31.2791 76.2878 31.2791C76.5733 31.2791 76.8485 31.1718 77.0581 30.9787C77.2677 30.7856 77.3963 30.5208 77.4184 30.2372V18.0607C77.3999 17.7749 77.2728 17.5068 77.0632 17.311C76.8531 17.1151 76.5763 17.0062 76.2893 17.0062Z" fill="#00939D"/>
<path d="M80.8709 17.0062C80.5839 17.0088 80.3086 17.1186 80.099 17.3139C79.8894 17.5091 79.7608 17.7756 79.7393 18.0607V30.2372C79.7613 30.5208 79.8899 30.7856 80.0995 30.9787C80.3092 31.1718 80.5844 31.2791 80.8698 31.2791C81.1553 31.2791 81.43 31.1718 81.6396 30.9787C81.8492 30.7856 81.9779 30.5208 82.0004 30.2372V18.0607C81.9814 17.7749 81.8543 17.5068 81.6447 17.311C81.4351 17.1151 81.1584 17.0062 80.8709 17.0062Z" fill="#00939D"/>
</g>
</svg>
