<svg width="40" height="40" viewBox="0 0 40 40" fill="none" xmlns="http://www.w3.org/2000/svg">
<path opacity="0.5" d="M31.4417 21.9225C32.9809 21.9225 33.7506 22.6921 33.7506 24.2314V30.4911C33.7506 32.0303 32.9809 32.8 31.4417 32.8H25.4898C23.9506 32.8 23.1809 32.0303 23.1809 30.4911V24.2314C23.1809 20.6398 23.5572 17.5099 24.3097 14.8419C25.0965 12.1396 26.6186 9.77939 28.8762 7.76124C29.6287 7.11133 30.2616 7.02581 30.7746 7.50469L33.0835 9.65967C33.5966 10.1385 33.4769 10.72 32.7244 11.4042C31.5614 12.4303 30.6036 13.9183 29.8511 15.868C29.1328 17.7836 28.7736 19.8017 28.7736 21.9225H31.4417ZM14.5097 21.9225C16.049 21.9225 16.8186 22.6921 16.8186 24.2314V30.4911C16.8186 32.0303 16.049 32.8 14.5097 32.8H8.55792C7.01866 32.8 6.24902 32.0303 6.24902 30.4911V24.2314C6.24902 20.6398 6.62529 17.5099 7.37782 14.8419C8.16455 12.1396 9.68672 9.77939 11.9443 7.76124C12.6968 7.11133 13.3296 7.02581 13.8427 7.50469L16.1516 9.65967C16.6647 10.1385 16.545 10.72 15.7925 11.4042C14.6295 12.4303 13.6717 13.9183 12.9192 15.868C12.2008 17.7836 11.8417 19.8017 11.8417 21.9225H14.5097Z" fill="#00939D"/>
</svg>
